<?xml version="1.0" encoding="UTF-8"?>
<svg version="1.1" xmlns="http://www.w3.org/2000/svg" width="257" height="247">
<path d="M0 0 C6.25280167 5.23644522 9.52715579 11.95293642 11.1875 19.875 C11.45702558 22.96292307 11.46469024 26.03452845 11.4609375 29.1328125 C11.48121193 30.91016271 11.50206241 32.68750643 11.5234375 34.46484375 C11.54608212 37.24077902 11.56253453 40.01645685 11.56835938 42.79248047 C11.57788184 45.48971891 11.61163286 48.18582762 11.6484375 50.8828125 C11.64086929 52.12359055 11.64086929 52.12359055 11.63314819 53.38943481 C11.72169838 58.58269795 12.50053059 60.97799137 16.1875 64.875 C20.48518401 73.09480282 19.64329194 83.07032325 19.57861328 92.07226562 C19.56241077 94.76482841 19.57858464 97.45591799 19.59765625 100.1484375 C19.59567587 101.8671908 19.59183644 103.58594318 19.5859375 105.3046875 C19.59201019 106.10574921 19.59808289 106.90681091 19.6043396 107.73214722 C19.56235955 111.05375741 19.41763585 113.45824461 17.7956543 116.39550781 C16.1875 117.875 16.1875 117.875 14.05859375 118.1171875 C12.85396484 117.93542969 12.85396484 117.93542969 11.625 117.75 C10.28115234 117.56050781 10.28115234 117.56050781 8.91015625 117.3671875 C6.44571667 116.92167905 4.00807535 116.41294382 1.5625 115.875 C-13.80318186 112.67180927 -29.48420853 113.54951762 -44.65625 117.25390625 C-47.88679214 117.88961937 -50.5381434 118.27509694 -53.8125 117.875 C-56.61058991 115.35779622 -56.82292952 113.77044902 -57.20068359 109.98364258 C-57.22045648 108.41239283 -57.22280298 106.84086061 -57.2109375 105.26953125 C-57.21380768 104.43089035 -57.21667786 103.59224945 -57.21963501 102.72819519 C-57.22167446 100.95379969 -57.21615287 99.17938166 -57.20361328 97.4050293 C-57.18765806 94.7141564 -57.20341317 92.02480856 -57.22265625 89.33398438 C-57.22067183 87.60416339 -57.21682406 85.87434335 -57.2109375 84.14453125 C-57.21701019 83.35045364 -57.22308289 82.55637604 -57.2293396 81.73823547 C-57.14524409 74.91543862 -55.91902444 68.58888003 -51.671875 63.1171875 C-48.74179335 58.00801152 -49.13438447 52.78996721 -49.0625 47 C-49.03285156 45.8346875 -49.00320312 44.669375 -48.97265625 43.46875 C-48.90221399 40.60409805 -48.84938887 37.74024795 -48.8125 34.875 C-47.22782272 35.15927417 -45.6447943 35.45274818 -44.0625 35.75 C-42.73992187 35.99363281 -42.73992187 35.99363281 -41.390625 36.2421875 C-38.8125 36.875 -38.8125 36.875 -34.8125 38.875 C-34.8125 42.835 -34.8125 46.795 -34.8125 50.875 C-32.8325 50.38 -32.8325 50.38 -30.8125 49.875 C-28.98090996 49.78362738 -27.14636651 49.74434427 -25.3125 49.7421875 C-23.7346875 49.74025391 -23.7346875 49.74025391 -22.125 49.73828125 C-21.031875 49.74214844 -19.93875 49.74601562 -18.8125 49.75 C-17.719375 49.74613281 -16.62625 49.74226563 -15.5 49.73828125 C-14.448125 49.73957031 -13.39625 49.74085937 -12.3125 49.7421875 C-10.87390625 49.74387939 -10.87390625 49.74387939 -9.40625 49.74560547 C-7.05446684 49.86292899 -5.06197394 50.20718742 -2.8125 50.875 C-2.85688639 46.44516163 -2.92695877 42.01666726 -3.02001953 37.58764648 C-3.04810373 36.08352807 -3.06938032 34.57926552 -3.08349609 33.07495117 C-3.10510229 30.90208816 -3.15183432 28.73093525 -3.203125 26.55859375 C-3.22407227 25.25462646 -3.24501953 23.95065918 -3.26660156 22.60717773 C-4.03610412 17.34627181 -5.90030367 13.42542946 -10.125 10 C-14.89729052 8.00229699 -18.40814547 7.40688182 -23.375 9.0625 C-29.49764292 10.91747894 -36.0078225 7.84793814 -41.8125 5.875 C-39.67767173 0.68399652 -35.59472589 -1.51511749 -30.8125 -4.125 C-20.29875695 -8.29119351 -9.0661235 -6.49086251 0 0 Z M-24.1875 71.5 C-26.25611448 74.52335963 -26.28129799 76.28088208 -25.8125 79.875 C-25.1525 80.535 -24.4925 81.195 -23.8125 81.875 C-23.80078125 83.86328125 -23.80078125 83.86328125 -24.125 86.1875 C-24.27388672 87.32638672 -24.27388672 87.32638672 -24.42578125 88.48828125 C-24.82648012 90.96128137 -25.3211796 93.41839799 -25.8125 95.875 C-21.1925 95.875 -16.5725 95.875 -11.8125 95.875 C-12.1425 94.493125 -12.4725 93.11125 -12.8125 91.6875 C-14.22442071 85.2733459 -14.22442071 85.2733459 -13.8125 81.875 C-13.1525 81.215 -12.4925 80.555 -11.8125 79.875 C-11.34370201 76.28088208 -11.36888552 74.52335963 -13.4375 71.5 C-17.32660622 68.83903258 -20.29839378 68.83903258 -24.1875 71.5 Z " fill="#08285C" transform="translate(142.8125,40.125)"/>
<path d="M0 0 C4.986845 4.35727653 4.986845 4.35727653 7 7 C7 7.66 7 8.32 7 9 C4.1162776 7.98221562 1.83208522 6.88285016 -0.6875 5.125 C-5.01723688 2.34743295 -10.71539198 -1 -16 -1 C-17.35538683 0.82946832 -18.63206578 2.71734639 -19.875 4.625 C-32.24379259 23.04047449 -48.85784366 40.9362455 -70 49 C-79.99494035 50.52465192 -88.20619499 44.48443139 -96 38.8125 C-110.58542633 27.43014769 -121.70501122 14.30862398 -132 -1 C-138.72568465 0.99821066 -144.79242551 3.75147656 -151 7 C-152.33196909 7.66938821 -153.66483853 8.3370022 -155 9 C-149.42809382 -4.15918267 -131.49080997 -11.36914755 -118.97070312 -16.55371094 C-80.11714949 -31.52815574 -32.91461796 -26.31283212 0 0 Z M-88 -11 C-88 -10.01 -88 -9.02 -88 -8 C-86.26363281 -8.05220703 -86.26363281 -8.05220703 -84.4921875 -8.10546875 C-82.9531396 -8.13362207 -81.41407589 -8.16092056 -79.875 -8.1875 C-79.11445312 -8.21263672 -78.35390625 -8.23777344 -77.5703125 -8.26367188 C-72.60935332 -8.32782221 -69.31475666 -7.72060229 -65 -5 C-60.13784668 0.3651347 -60.66945373 6.43694016 -60.78515625 13.3125 C-61.04679668 17.80320114 -61.53731718 20.26351572 -64 24 C-68.36941876 27.45431407 -72.35072036 27.46744286 -77.6875 27.5625 C-83.35312638 27.34048277 -83.35312638 27.34048277 -88 30 C-82.64226909 32.67886545 -74.63949298 31.47433124 -69.0625 29.8125 C-64.37187673 28.00253124 -61.23511086 25.37889311 -58.890625 20.86328125 C-57.70263531 17.0439986 -57.6702264 13.5388828 -57.6875 9.5625 C-57.67138672 8.82451172 -57.65527344 8.08652344 -57.63867188 7.32617188 C-57.63342277 1.42092674 -59.02542048 -2.63050458 -62.875 -7.25 C-67.98004344 -11.45415342 -73.00473205 -11.25444117 -79.3125 -11.125 C-80.56643555 -11.11146484 -80.56643555 -11.11146484 -81.84570312 -11.09765625 C-83.89725969 -11.07420989 -85.94866777 -11.03834266 -88 -11 Z M-90 -8 C-90.04953687 -3.80079763 -90.08578411 0.39824869 -90.10986328 4.59765625 C-90.11990427 6.02542078 -90.13353981 7.45316483 -90.15087891 8.88085938 C-90.17521152 10.93624941 -90.18650202 12.99136692 -90.1953125 15.046875 C-90.20578613 16.28276367 -90.21625977 17.51865234 -90.22705078 18.79199219 C-90.18708705 22.26407828 -90.18708705 22.26407828 -88 26 C-88 14.78 -88 3.56 -88 -8 C-88.66 -8 -89.32 -8 -90 -8 Z M-77 1 C-77 6.61 -77 12.22 -77 18 C-72.36980013 17.5547002 -72.36980013 17.5547002 -71 16 C-70.84845031 13.8579034 -70.77822255 11.70976538 -70.75 9.5625 C-70.72421875 8.38816406 -70.6984375 7.21382812 -70.671875 6.00390625 C-70.78015625 5.01261719 -70.8884375 4.02132812 -71 3 C-73.81509993 0.7226499 -73.81509993 0.7226499 -77 1 Z " fill="#1B65DE" transform="translate(198,186)"/>
<path d="M0 0 C1.19863174 0.33451675 2.39726349 0.66903351 3.63221741 1.01368713 C4.30167892 1.19739868 4.97114044 1.38111023 5.66088867 1.57038879 C7.849399 2.17320195 10.03371352 2.78999421 12.21839905 3.4065094 C13.75452157 3.83118588 15.29095027 4.25475624 16.82766724 4.67727661 C20.85921068 5.78795364 24.88761084 6.90958053 28.91511536 8.0348053 C35.35570482 9.83384907 41.79905045 11.62270315 48.24592781 13.39908028 C50.48367898 14.01843994 52.71885859 14.64649395 54.95397949 15.27526855 C67.55992354 19.15079274 67.55992354 19.15079274 80.4410553 18.28541565 C83.55819384 22.49887063 83.81782321 26.02650615 83.6285553 31.09791565 C83.60825256 32.13722229 83.60825256 32.13722229 83.58753967 33.19752502 C83.55244374 34.8938283 83.49864472 36.58972701 83.4410553 38.28541565 C75.39324122 42.43912614 66.93398698 39.96575014 58.6910553 37.66041565 C57.69751038 37.39188782 56.70396545 37.12335999 55.68031311 36.84669495 C52.59622471 36.00777796 49.51792288 35.15041626 46.4410553 34.28541565 C45.47296936 34.01326233 44.50488342 33.74110901 43.50746155 33.46070862 C36.29409424 31.42360026 29.08851885 29.35914527 21.89808655 27.2424469 C20.94289124 26.96787659 19.98769592 26.69330627 19.0035553 26.41041565 C18.24171936 26.18611877 17.47988342 25.9618219 16.69496155 25.73072815 C13.91565989 25.18161136 11.26811006 25.25789586 8.4410553 25.28541565 C8.0055175 45.97681125 7.76211648 65.99322983 12.4410553 86.28541565 C12.61765686 87.09994202 12.79425842 87.91446838 12.97621155 88.75367737 C15.98656335 102.47028962 21.09513582 115.33043001 26.4410553 128.28541565 C25.72175842 128.7133844 25.00246155 129.14135315 24.2613678 129.58229065 C22.45131428 130.67534236 20.65309095 131.78837162 18.8707428 132.92604065 C17.60617249 133.72268127 17.60617249 133.72268127 16.3160553 134.53541565 C15.46785217 135.0768219 14.61964905 135.61822815 13.7457428 136.17604065 C11.4410553 137.28541565 11.4410553 137.28541565 8.4410553 136.28541565 C7.36952209 134.52980042 7.36952209 134.52980042 6.39027405 132.2268219 C6.02458313 131.37596008 5.65889221 130.52509827 5.28211975 129.64845276 C4.90144348 128.72427551 4.52076721 127.80009827 4.1285553 126.84791565 C3.73047668 125.89215637 3.33239807 124.93639709 2.92225647 123.95167542 C-10.53369252 91.19989014 -15.71761915 57.18066988 -15.9964447 21.91041565 C-16.00875122 21.0143158 -16.02105774 20.11821594 -16.03373718 19.19496155 C-16.06322116 16.63344545 -16.06392232 14.0736166 -16.05503845 11.51197815 C-16.06612137 10.74022247 -16.07720428 9.9684668 -16.08862305 9.17332458 C-16.04596338 5.85666919 -15.76633662 3.62598685 -14.02793884 0.77125549 C-9.6703551 -1.85113694 -4.80321376 -0.96441549 0 0 Z " fill="#4D8BEF" transform="translate(50.55894470214844,36.71458435058594)"/>
<path d="M0 0 C2.20727539 1.4934082 2.20727539 1.4934082 4 4 C4.38803268 6.95527953 4.53717353 9.52828367 4.49609375 12.48046875 C4.49886322 13.31726166 4.50163269 14.15405457 4.50448608 15.01620483 C4.50514639 17.74061222 4.47361559 20.46334812 4.4375 23.1875 C4.43068207 24.11593719 4.42386414 25.04437439 4.4168396 26.00094604 C4.3036112 40.8261784 3.59403446 55.37656974 1 70 C0.73461426 71.51134521 0.73461426 71.51134521 0.46386719 73.05322266 C-3.41913937 94.49694192 -8.9049948 119.50175675 -21 138 C-24.61237057 137.31519041 -27.43146314 135.79044654 -30.625 134 C-31.58664063 133.46375 -32.54828125 132.9275 -33.5390625 132.375 C-34.35117188 131.92125 -35.16328125 131.4675 -36 131 C-36.66 130.67 -37.32 130.34 -38 130 C-37.35505023 127.15624924 -36.47540621 124.58109033 -35.328125 121.90234375 C-30.51726356 110.44796729 -26.59294589 99.156749 -24 87 C-23.80921875 86.11908691 -23.6184375 85.23817383 -23.421875 84.33056641 C-19.3413967 64.71049633 -19.18840039 44.95582414 -19 25 C-23.23433372 25.55135235 -27.28361359 26.24278373 -31.390625 27.41015625 C-32.34710938 27.67763672 -33.30359375 27.94511719 -34.2890625 28.22070312 C-35.26617187 28.49849609 -36.24328125 28.77628906 -37.25 29.0625 C-39.2125465 29.61940443 -41.17605068 30.17294812 -43.140625 30.72265625 C-44.43274902 31.09015991 -44.43274902 31.09015991 -45.75097656 31.46508789 C-48 32 -48 32 -51 32 C-51.06058594 31.04738281 -51.12117187 30.09476563 -51.18359375 29.11328125 C-51.26738281 27.85902344 -51.35117188 26.60476562 -51.4375 25.3125 C-51.51871094 24.07113281 -51.59992188 22.82976563 -51.68359375 21.55078125 C-51.94491317 18.61819663 -52.34798379 15.86558383 -53 13 C-45.21740721 10.29559139 -37.3224007 8.1003369 -29.375 5.9375 C-26.82011579 5.23899875 -24.26555447 4.53932221 -21.7109375 3.83984375 C-20.58993652 3.53425537 -19.46893555 3.22866699 -18.31396484 2.91381836 C-15.94604105 2.26086869 -13.58315908 1.58952194 -11.22387695 0.90600586 C-7.08235414 -0.25788594 -4.28299701 -0.42127839 0 0 Z " fill="#1459CA" transform="translate(209,36)"/>
<path d="M0 0 C1.60870113 0.02014328 3.21742729 0.0383799 4.82617188 0.0546875 C8.69725481 0.09795546 12.5670841 0.16652359 16.4375 0.25 C16.9325 2.725 16.9325 2.725 17.4375 5.25 C16.1175 5.25 14.7975 5.25 13.4375 5.25 C13.4375 5.91 13.4375 6.57 13.4375 7.25 C11.7875 7.25 10.1375 7.25 8.4375 7.25 C8.4375 7.91 8.4375 8.57 8.4375 9.25 C9.4275 9.58 10.4175 9.91 11.4375 10.25 C11.9325 11.735 11.9325 11.735 12.4375 13.25 C11.8712793 13.08701416 11.30505859 12.92402832 10.72167969 12.75610352 C8.36148883 12.23315828 6.30467843 12.13603258 3.890625 12.15234375 C3.04628906 12.15556641 2.20195313 12.15878906 1.33203125 12.16210938 C0.45933594 12.17048828 -0.41335937 12.17886719 -1.3125 12.1875 C-2.20066406 12.19201172 -3.08882813 12.19652344 -4.00390625 12.20117188 C-6.19017329 12.212926 -8.37630179 12.22935751 -10.5625 12.25 C-10.8925 13.24 -11.2225 14.23 -11.5625 15.25 C-12.2225 15.25 -12.8825 15.25 -13.5625 15.25 C-13.5625 22.51 -13.5625 29.77 -13.5625 37.25 C-13.8925 37.25 -14.2225 37.25 -14.5625 37.25 C-14.59988281 38.37019531 -14.63726562 39.49039063 -14.67578125 40.64453125 C-14.74144257 42.1172209 -14.80788986 43.58987566 -14.875 45.0625 C-14.89755859 45.80048828 -14.92011719 46.53847656 -14.94335938 47.29882812 C-15.2171608 52.79974762 -15.2171608 52.79974762 -17.10546875 55.26171875 C-17.82669922 55.75091797 -17.82669922 55.75091797 -18.5625 56.25 C-18.01541273 58.78744315 -18.01541273 58.78744315 -16.5625 61.25 C-13.71171909 62.01716851 -13.71171909 62.01716851 -10.5625 62.25 C-8.87874835 62.87225605 -7.20482772 63.52544365 -5.5625 64.25 C-5.8925 65.9 -6.2225 67.55 -6.5625 69.25 C-27.98312548 61.61102694 -43.43476767 40.2839093 -55.5625 22.25 C-62.28818465 24.24821066 -68.35492551 27.00147656 -74.5625 30.25 C-75.89446909 30.91938821 -77.22733853 31.5870022 -78.5625 32.25 C-73.15065827 19.46884188 -56.31822426 12.66628319 -44.25 7.5 C-43.63632568 7.2304248 -43.02265137 6.96084961 -42.39038086 6.68310547 C-28.48997709 1.0082582 -14.83612767 -0.33007231 0 0 Z " fill="#3B7FEE" transform="translate(121.5625,162.75)"/>
<path d="M0 0 C0.70833984 -0.020625 1.41667969 -0.04125 2.14648438 -0.0625 C6.94249076 -0.09792756 10.14297556 0.64404723 14.3125 3.25 C19.83586822 9.22120889 19.6612855 14.7609992 19.5234375 22.56640625 C19.26379509 27.10053212 18.82128159 29.48682761 16.3125 33.25 C11.17934156 37.62120524 6.88651402 37.89316392 0.4375 38 C-0.44164063 38.02964844 -1.32078125 38.05929688 -2.2265625 38.08984375 C-4.37972545 38.16005559 -6.53361485 38.20734881 -8.6875 38.25 C-9.90353376 34.60189871 -9.72636267 31.34123919 -9.6015625 27.5546875 C-9.58032318 26.80663849 -9.55908386 26.05858948 -9.53720093 25.28787231 C-9.49099565 23.70925035 -9.44207205 22.13070593 -9.390625 20.55224609 C-9.3125786 18.12744201 -9.24553791 15.70250633 -9.1796875 13.27734375 C-9.13347035 11.74477169 -9.08661732 10.21221864 -9.0390625 8.6796875 C-9.01921295 7.95055145 -8.9993634 7.22141541 -8.97891235 6.47018433 C-8.7276981 -0.8034563 -6.61847208 0.04689794 0 0 Z M2.3125 10.25 C2.3125 15.86 2.3125 21.47 2.3125 27.25 C6.94269987 26.8047002 6.94269987 26.8047002 8.3125 25.25 C8.46404969 23.1079034 8.53427745 20.95976538 8.5625 18.8125 C8.58828125 17.63816406 8.6140625 16.46382812 8.640625 15.25390625 C8.53234375 14.26261719 8.4240625 13.27132812 8.3125 12.25 C5.49740007 9.9726499 5.49740007 9.9726499 2.3125 10.25 Z " fill="#09295C" transform="translate(118.6875,176.75)"/>
<path d="M0 0 C0.33 0 0.66 0 1 0 C0.99214478 0.99012085 0.99214478 0.99012085 0.98413086 2.00024414 C0.96321049 5.02098622 0.9502922 8.041713 0.9375 11.0625 C0.92912109 12.10083984 0.92074219 13.13917969 0.91210938 14.20898438 C0.86987051 22.15918709 0.86987051 22.15918709 2 30 C8.63969754 33.31984877 17.85507059 30.83002225 24.52734375 28.65625 C27.12114268 27.96784839 29.32896343 27.88532222 32 28 C31.505 26.02 31.505 26.02 31 24 C33.31 24.33 35.62 24.66 38 25 C39.12745936 28.38237807 38.73788558 30.55653397 38 34 C38.11601562 34.95648438 38.23203125 35.91296875 38.3515625 36.8984375 C38 40 38 40 35.33203125 42.265625 C34.17192834 42.94975426 32.99786697 43.61064349 31.8125 44.25 C31.23435547 44.58773437 30.65621094 44.92546875 30.06054688 45.2734375 C22.82592986 49.42618942 17.24569883 51.22771675 9.0625 49.3125 C7 48 7 48 6.125 45.4375 C6.08375 44.633125 6.0425 43.82875 6 43 C6.495 42.505 6.495 42.505 7 42 C6.38511719 41.89042969 5.77023438 41.78085938 5.13671875 41.66796875 C3.92435547 41.43013672 3.92435547 41.43013672 2.6875 41.1875 C1.88699219 41.03667969 1.08648437 40.88585937 0.26171875 40.73046875 C-2.26862208 39.91324296 -3.33474584 39.04161191 -5 37 C-5.875 35.0625 -5.875 35.0625 -6 33 C-5.51668213 32.41541016 -5.03336426 31.83082031 -4.53540039 31.22851562 C-2.59607205 28.41372964 -2.60423835 26.6769895 -2.55859375 23.28125 C-2.53216797 22.18425781 -2.50574219 21.08726562 -2.47851562 19.95703125 C-2.46498047 18.81621094 -2.45144531 17.67539063 -2.4375 16.5 C-2.40301685 14.23943796 -2.36038519 11.97898173 -2.30859375 9.71875 C-2.29626709 8.71779297 -2.28394043 7.71683594 -2.27124023 6.68554688 C-1.99770249 3.9772524 -1.38401282 2.31805781 0 0 Z " fill="#2971EC" transform="translate(108,185)"/>
<path d="M0 0 C1.92875977 0.00966797 1.92875977 0.00966797 3.89648438 0.01953125 C5.23437779 0.03623649 6.57226842 0.05316631 7.91015625 0.0703125 C9.27538408 0.08035928 10.64061905 0.08948214 12.00585938 0.09765625 C15.32830824 0.12113645 18.65038946 0.15397891 21.97265625 0.1953125 C22.46765625 2.6703125 22.46765625 2.6703125 22.97265625 5.1953125 C21.65265625 5.1953125 20.33265625 5.1953125 18.97265625 5.1953125 C18.97265625 5.8553125 18.97265625 6.5153125 18.97265625 7.1953125 C17.32265625 7.1953125 15.67265625 7.1953125 13.97265625 7.1953125 C13.97265625 7.8553125 13.97265625 8.5153125 13.97265625 9.1953125 C14.96265625 9.5253125 15.95265625 9.8553125 16.97265625 10.1953125 C17.30265625 11.1853125 17.63265625 12.1753125 17.97265625 13.1953125 C17.40643555 13.03232666 16.84021484 12.86934082 16.25683594 12.70141602 C13.89664508 12.17847078 11.83983468 12.08134508 9.42578125 12.09765625 C8.58144531 12.10087891 7.73710938 12.10410156 6.8671875 12.10742188 C5.99449219 12.11580078 5.12179688 12.12417969 4.22265625 12.1328125 C3.33449219 12.13732422 2.44632813 12.14183594 1.53125 12.14648438 C-0.65501704 12.1582385 -2.84114554 12.17467001 -5.02734375 12.1953125 C-5.35734375 13.1853125 -5.68734375 14.1753125 -6.02734375 15.1953125 C-6.68734375 15.1953125 -7.34734375 15.1953125 -8.02734375 15.1953125 C-8.00671875 16.2884375 -7.98609375 17.3815625 -7.96484375 18.5078125 C-8.02734375 22.1953125 -8.02734375 22.1953125 -9.02734375 25.1953125 C-9.68734375 24.8653125 -10.34734375 24.5353125 -11.02734375 24.1953125 C-11.8779132 20.63838573 -12.19644182 18.70260672 -11.02734375 15.1953125 C-11.33006336 13.85469707 -11.66572346 12.52125355 -12.02734375 11.1953125 C-12.02734375 9.8753125 -12.02734375 8.5553125 -12.02734375 7.1953125 C-11.36734375 6.8653125 -10.70734375 6.5353125 -10.02734375 6.1953125 C-11.34734375 4.8753125 -12.66734375 3.5553125 -14.02734375 2.1953125 C-9.17568282 0.62956151 -5.14930654 -0.04577161 0 0 Z M-7.02734375 3.1953125 C-8.01734375 4.6803125 -8.01734375 4.6803125 -9.02734375 6.1953125 C-7.70734375 6.5253125 -6.38734375 6.8553125 -5.02734375 7.1953125 C-5.68734375 5.8753125 -6.34734375 4.5553125 -7.02734375 3.1953125 Z " fill="#2D75ED" transform="translate(116.02734375,162.8046875)"/>
<path d="M0 0 C6.19499029 1.12241566 12.24387318 2.55540922 18.31640625 4.19921875 C19.06280365 4.39943634 19.80920105 4.59965393 20.57821655 4.80593872 C23.69354474 5.64190349 26.8084014 6.47846697 29.91674805 7.34008789 C41.79947782 10.76020954 41.79947782 10.76020954 54 10 C57.11713854 14.21345498 57.37676791 17.7410905 57.1875 22.8125 C57.16719727 23.85180664 57.16719727 23.85180664 57.14648438 24.91210938 C57.11138845 26.60841265 57.05758943 28.30431136 57 30 C48.7027691 34.28244175 39.92347085 31.53515577 31.4375 29.1875 C29.9534668 28.79594727 29.9534668 28.79594727 28.43945312 28.39648438 C22.8215811 26.88670457 17.40842163 25.14150345 12 23 C12.66 21.68 13.32 20.36 14 19 C15.32 19 16.64 19 18 19 C18 19.66 18 20.32 18 21 C18.66 21 19.32 21 20 21 C20.33 20.34 20.66 19.68 21 19 C21.66 19.66 22.32 20.32 23 21 C23.99 21 24.98 21 26 21 C26 22.32 26 23.64 26 25 C27.12019531 25.12117188 28.24039063 25.24234375 29.39453125 25.3671875 C30.86723636 25.53603267 32.33989004 25.70532697 33.8125 25.875 C34.55048828 25.95363281 35.28847656 26.03226563 36.04882812 26.11328125 C39.71506181 26.54460286 41.87951745 26.9196783 45 29 C46.65549531 29.38499891 48.3222433 29.72793135 50 30 C50 29.01 50 28.02 50 27 C51.65 26.34 53.3 25.68 55 25 C55.33 22.03 55.66 19.06 56 16 C55.34 16.66 54.68 17.32 54 18 C53.01 18 52.02 18 51 18 C51 17.34 51 16.68 51 16 C49.02 16.66 47.04 17.32 45 18 C44.34 16.68 43.68 15.36 43 14 C41.6696875 14.0928125 41.6696875 14.0928125 40.3125 14.1875 C37 14 37 14 34.5625 12.5 C31.24678562 10.55909402 28.7751488 10.77793242 25 11 C24.67 10.01 24.34 9.02 24 8 C23.01 8.66 22.02 9.32 21 10 C17.24301443 10.37569856 16.24633524 10.1642235 13 8 C12.67 8.99 12.34 9.98 12 11 C11.67 9.02 11.34 7.04 11 5 C7.37 3.68 3.74 2.36 0 1 C0 0.67 0 0.34 0 0 Z " fill="#306CD9" transform="translate(77,45)"/>
<path d="M0 0 C2.31 0.33 4.62 0.66 7 1 C8.12745936 4.38237807 7.73788558 6.55653397 7 10 C6.96227087 11.9996441 6.95350094 14.00054061 7 16 C4.03 17.65 1.06 19.3 -2 21 C-2 20.34 -2 19.68 -2 19 C-2.99 19.33 -3.98 19.66 -5 20 C-5 19.01 -5 18.02 -5 17 C-8.27773504 17.75150023 -8.27773504 17.75150023 -10 21 C-10.99 21 -11.98 21 -13 21 C-11.25 16.125 -11.25 16.125 -9 15 C-9 14.34 -9 13.68 -9 13 C-10.98 13.33 -12.96 13.66 -15 14 C-15.33 13.01 -15.66 12.02 -16 11 C-19.63 10.67 -23.26 10.34 -27 10 C-27 9.01 -27 8.02 -27 7 C-25.89205078 7.05220703 -25.89205078 7.05220703 -24.76171875 7.10546875 C-18.20157448 7.28051707 -12.71852697 6.69110381 -6.47265625 4.65625 C-3.87885732 3.96784839 -1.67103657 3.88532222 1 4 C0.67 2.68 0.34 1.36 0 0 Z " fill="#1E6AE7" transform="translate(139,209)"/>
<path d="M0 0 C-0.99902344 0.42410156 -1.99804688 0.84820312 -3.02734375 1.28515625 C-4.33137097 1.87619017 -5.63472228 2.46871696 -6.9375 3.0625 C-7.59685547 3.33771484 -8.25621094 3.61292969 -8.93554688 3.89648438 C-11.13586296 4.85612752 -11.13586296 4.85612752 -14 7 C-15.1765426 11.37273726 -15.11372211 14.65648378 -14 19 C-13.66055205 20.99897128 -13.32578384 22.99875639 -13 25 C-15.95929119 22.24479785 -18.03681826 19.53372712 -20 16 C-26.72568465 17.99821066 -32.79242551 20.75147656 -39 24 C-40.33196909 24.66938821 -41.66483853 25.3370022 -43 26 C-37.60734086 13.26414543 -20.86702191 6.38534496 -8.75 1.4375 C-7.78380737 1.04171753 -7.78380737 1.04171753 -6.7980957 0.63793945 C-2.25369405 -1.12684703 -2.25369405 -1.12684703 0 0 Z " fill="#588ADC" transform="translate(86,169)"/>
<path d="M0 0 C0.83265381 0.00523682 1.66530762 0.01047363 2.52319336 0.01586914 C3.42231445 0.0190918 4.32143555 0.02231445 5.24780273 0.02563477 C6.66609375 0.03820312 6.66609375 0.03820312 8.11303711 0.05102539 C9.06243164 0.05553711 10.01182617 0.06004883 10.98999023 0.06469727 C13.34356776 0.07652429 15.69702188 0.09300514 18.05053711 0.11352539 C18.38053711 1.76352539 18.71053711 3.41352539 19.05053711 5.11352539 C17.73053711 5.11352539 16.41053711 5.11352539 15.05053711 5.11352539 C15.05053711 5.77352539 15.05053711 6.43352539 15.05053711 7.11352539 C13.40053711 7.11352539 11.75053711 7.11352539 10.05053711 7.11352539 C10.05053711 7.77352539 10.05053711 8.43352539 10.05053711 9.11352539 C11.04053711 9.44352539 12.03053711 9.77352539 13.05053711 10.11352539 C13.38053711 11.10352539 13.71053711 12.09352539 14.05053711 13.11352539 C9.59553711 12.12352539 9.59553711 12.12352539 5.05053711 11.11352539 C5.05053711 10.12352539 5.05053711 9.13352539 5.05053711 8.11352539 C4.28741211 7.88665039 3.52428711 7.65977539 2.73803711 7.42602539 C-0.4968259 5.84620857 -1.36587647 4.28069822 -2.94946289 1.11352539 C-1.94946289 0.11352539 -1.94946289 0.11352539 0 0 Z " fill="#206EEC" transform="translate(119.949462890625,162.886474609375)"/>
<path d="M0 0 C14.45742458 2.22421917 32.1438445 12.37428314 41 24 C41 24.66 41 25.32 41 26 C38.1162776 24.98221562 35.83208522 23.88285016 33.3125 22.125 C28.98276312 19.34743295 23.28460802 16 18 16 C17.34 16.66 16.68 17.32 16 18 C16.33 16.68 16.66 15.36 17 14 C19.33294775 13.95758277 21.66702567 13.95907063 24 14 C24.33 14.33 24.66 14.66 25 15 C25.33 14.34 25.66 13.68 26 13 C24.02 13 22.04 13 20 13 C19.67 12.01 19.34 11.02 19 10 C18.34 9.67 17.68 9.34 17 9 C16.67 9.66 16.34 10.32 16 11 C14 9.625 14 9.625 12 8 C12 7.34 12 6.68 12 6 C11.42765625 5.87753906 10.8553125 5.75507813 10.265625 5.62890625 C7.90046809 4.97237132 5.92793203 4.06276488 3.75 2.9375 C3.04359375 2.57527344 2.3371875 2.21304688 1.609375 1.83984375 C1.07828125 1.56269531 0.5471875 1.28554687 0 1 C0 0.67 0 0.34 0 0 Z " fill="#245AB4" transform="translate(164,169)"/>
<path d="M0 0 C0.66 -0.02835938 1.32 -0.05671875 2 -0.0859375 C5.07100057 0.62183216 6.09352167 1.87096147 8 4.375 C8.38790288 7.34156041 8.53725371 9.92716372 8.49609375 12.890625 C8.49863663 13.73123978 8.5011795 14.57185455 8.50379944 15.4379425 C8.50390929 18.16755544 8.47235767 20.89562627 8.4375 23.625 C8.42707366 25.4895019 8.41665701 27.35400385 8.40625 29.21850586 C8.27608481 42.77589935 7.30509362 55.99722455 5 69.375 C4.67 69.375 4.34 69.375 4 69.375 C4 64.095 4 58.815 4 53.375 C4.66 53.375 5.32 53.375 6 53.375 C5.90778485 46.59374162 5.80048639 39.81284311 5.68261719 33.03198242 C5.64429584 30.72442056 5.60944859 28.41679832 5.578125 26.10913086 C5.53254318 22.79519037 5.47453712 19.48166673 5.4140625 16.16796875 C5.40251129 15.1335112 5.39096008 14.09905365 5.37905884 13.0332489 C5.35918915 12.0724794 5.33931946 11.1117099 5.31884766 10.12182617 C5.30552399 9.27577316 5.29220032 8.42972015 5.2784729 7.55802917 C5.12741711 5.08408991 5.12741711 5.08408991 3 2.375 C0.33346095 2.01039547 0.33346095 2.01039547 -2.625 2.1875 C-3.62789062 2.21457031 -4.63078125 2.24164063 -5.6640625 2.26953125 C-6.82035156 2.32173828 -6.82035156 2.32173828 -8 2.375 C-5.2500026 0.84040323 -3.15466415 0.06161453 0 0 Z " fill="#2154A4" transform="translate(205,35.625)"/>
<path d="M0 0 C0.66 0 1.32 0 2 0 C2.33 1.32 2.66 2.64 3 4 C4.32 4 5.64 4 7 4 C7 6.31 7 8.62 7 11 C7.99 11.33 8.98 11.66 10 12 C9.814375 12.94875 9.62875 13.8975 9.4375 14.875 C8.71313368 17.89868793 8.71313368 17.89868793 10 20 C11.65 20 13.3 20 15 20 C15.66 21.65 16.32 23.3 17 25 C15.68 25 14.36 25 13 25 C13.66 26.32 14.32 27.64 15 29 C16.65 29 18.3 29 20 29 C17.6875 31.0625 17.6875 31.0625 15 33 C12 32 12 32 10.88085938 30.1015625 C10.53861328 29.28429687 10.19636719 28.46703125 9.84375 27.625 C9.46089844 26.72136719 9.07804687 25.81773437 8.68359375 24.88671875 C8.29300781 23.93410156 7.90242188 22.98148438 7.5 22 C7.10941406 21.07832031 6.71882813 20.15664062 6.31640625 19.20703125 C0 4.12847222 0 4.12847222 0 0 Z " fill="#5C8FE8" transform="translate(47,141)"/>
<path d="M0 0 C6.19731377 1.13017145 12.26655197 2.54944026 18.3515625 4.1640625 C19.10032654 4.36191345 19.84909058 4.5597644 20.62054443 4.76361084 C23.74610044 5.59116072 26.87087319 6.42122398 29.9921875 7.26464844 C32.29720393 7.88589248 34.60525266 8.49459134 36.9140625 9.1015625 C37.60698395 9.2921524 38.2999054 9.48274231 39.01382446 9.67910767 C43.79514971 10.92290834 48.05915767 11.1677553 53 11 C53.495 11.99 53.495 11.99 54 13 C47.77321163 13.26942834 41.73340794 12.83735382 35.5625 12.0625 C34.86447266 11.97564941 34.16644531 11.88879883 33.44726562 11.79931641 C30.49923205 11.41107732 27.82871193 10.94290398 25 10 C24.67 9.34 24.34 8.68 24 8 C23.01 8.66 22.02 9.32 21 10 C17.24301443 10.37569856 16.24633524 10.1642235 13 8 C12.67 8.99 12.34 9.98 12 11 C11.67 9.02 11.34 7.04 11 5 C7.37 3.68 3.74 2.36 0 1 C0 0.67 0 0.34 0 0 Z " fill="#467DDB" transform="translate(77,45)"/>
<path d="M0 0 C0 0.33 0 0.66 0 1 C-1.093125 1.103125 -2.18625 1.20625 -3.3125 1.3125 C-7.44609387 2.05566392 -7.44609387 2.05566392 -10 5 C-10.43333916 7.2358622 -10.43333916 7.2358622 -10.34057617 9.74682617 C-10.34034958 10.70759567 -10.34012299 11.66836517 -10.33988953 12.6582489 C-10.32440567 13.69270645 -10.30892181 14.727164 -10.29296875 15.79296875 C-10.28872391 16.85413406 -10.28447906 17.91529938 -10.28010559 19.00862122 C-10.26329706 22.40183765 -10.22564019 25.79446272 -10.1875 29.1875 C-10.172456 31.48631956 -10.15876711 33.78514841 -10.14648438 36.08398438 C-10.11338645 41.72285842 -10.0631653 47.36138697 -10 53 C-9.01 53.33 -8.02 53.66 -7 54 C-7.03480469 55.16402344 -7.03480469 55.16402344 -7.0703125 56.3515625 C-7.21143435 64.79871324 -6.39761872 72.67668138 -5 81 C-5.66 81 -6.32 81 -7 81 C-7.65362754 77.08459392 -8.2964178 73.16747809 -8.9375 69.25 C-9.11990234 68.15816406 -9.30230469 67.06632812 -9.49023438 65.94140625 C-11.64735852 52.68489787 -12.23569994 39.63239005 -12.29516602 26.22460938 C-12.30681362 24.3938024 -12.3274604 22.56303257 -12.35668945 20.73242188 C-12.39917259 18.06096805 -12.41549099 15.39049857 -12.42578125 12.71875 C-12.44328934 11.90208862 -12.46079742 11.08542725 -12.47883606 10.24401855 C-12.46476184 6.57919778 -12.3414841 4.45472486 -10.10717773 1.47949219 C-6.66446578 -0.93770564 -4.10865143 -0.2739101 0 0 Z " fill="#6691D7" transform="translate(47,36)"/>
<path d="M0 0 C0.5775 0.165 1.155 0.33 1.75 0.5 C4.26664369 1.14462031 4.26664369 1.14462031 8 1 C8 1.99 8 2.98 8 4 C8.61875 3.814375 9.2375 3.62875 9.875 3.4375 C12 3 12 3 14 4 C13.67 4.99 13.34 5.98 13 7 C12.67 6.67 12.34 6.34 12 6 C9.66702567 5.95907063 7.33294775 5.95758277 5 6 C4.690625 6.9075 4.38125 7.815 4.0625 8.75 C1.69691322 14.33094746 -3.5077589 23.25387945 -9 26 C-8.39249174 21.86894386 -7.18884505 18.56700675 -5 15 C-2.8125 14.125 -2.8125 14.125 -1 14 C-0.27743171 9.51866426 -0.27743171 9.51866426 0 5 C0 3.33333333 0 1.66666667 0 0 Z " fill="#155DD1" transform="translate(176,178)"/>
<path d="M0 0 C-0.99902344 0.42410156 -1.99804688 0.84820312 -3.02734375 1.28515625 C-4.33137097 1.87619017 -5.63472228 2.46871696 -6.9375 3.0625 C-7.59685547 3.33771484 -8.25621094 3.61292969 -8.93554688 3.89648438 C-11.13586296 4.85612752 -11.13586296 4.85612752 -14 7 C-15.11575929 10.95508449 -15.29896379 13.10310862 -14 17 C-14.99 17.33 -15.98 17.66 -17 18 C-17.33 16.68 -17.66 15.36 -18 14 C-20.97 13.505 -20.97 13.505 -24 13 C-24.33 11.68 -24.66 10.36 -25 9 C-2.95460614 -1.47730307 -2.95460614 -1.47730307 0 0 Z " fill="#4B8EF1" transform="translate(86,169)"/>
<path d="M0 0 C2.97 0.33 5.94 0.66 9 1 C9.37125 2.134375 9.7425 3.26875 10.125 4.4375 C10.88739992 6.38242979 10.88739992 6.38242979 12 8 C14.88006394 8.92457659 14.88006394 8.92457659 18 9 C19.68375165 9.62225605 21.35767228 10.27544365 23 11 C22.67 12.65 22.34 14.3 22 16 C17.71153839 14.50104239 14.14127173 12.26607525 10.4375 9.6875 C9.59155273 9.11999023 9.59155273 9.11999023 8.72851562 8.54101562 C5.16398283 6.0771105 2.53755182 3.50541999 0 0 Z " fill="#407ADD" transform="translate(93,216)"/>
<path d="M0 0 C3.875 1.875 3.875 1.875 5 3 C5 3.99 5 4.98 5 6 C-0.91546722 9.0672793 -5.31053162 10.66894684 -12 10 C-15 9 -15 9 -17 8 C-14.00519083 7.1276588 -11.36424089 6.89170234 -8.25 6.9375 C-7.45078125 6.94652344 -6.6515625 6.95554688 -5.828125 6.96484375 C-5.22484375 6.97644531 -4.6215625 6.98804688 -4 7 C-3.71125 6.21625 -3.4225 5.4325 -3.125 4.625 C-2 2 -2 2 0 0 Z " fill="#2D6CDB" transform="translate(132,225)"/>
<path d="M0 0 C0 0.99 0 1.98 0 3 C-1.65 2.67 -3.3 2.34 -5 2 C-11.69326452 12.03989679 -7.94419434 31.26501322 -7 43 C-7.66 43 -8.32 43 -9 43 C-9.92812104 34.51821698 -10.24519833 26.09186535 -10.3125 17.5625 C-10.34150391 16.31017578 -10.37050781 15.05785156 -10.40039062 13.76757812 C-10.41295898 11.96643555 -10.41295898 11.96643555 -10.42578125 10.12890625 C-10.44036377 9.04681885 -10.45494629 7.96473145 -10.4699707 6.84985352 C-9.44952842 0.66199753 -5.76107963 -0.52373451 0 0 Z " fill="#5C93EB" transform="translate(46,37)"/>
<path d="M0 0 C-3 2 -3 2 -10 2 C-10 7.61 -10 13.22 -10 19 C-8.02 18.34 -6.04 17.68 -4 17 C-1.125 16.875 -1.125 16.875 1 17 C1.33 16.34 1.66 15.68 2 15 C3.32 15.66 4.64 16.32 6 17 C3.73050898 17.67155349 1.4596039 18.3373963 -0.8125 19 C-2.70935547 19.556875 -2.70935547 19.556875 -4.64453125 20.125 C-8 21 -8 21 -11 21 C-11.06058594 20.04738281 -11.12117187 19.09476563 -11.18359375 18.11328125 C-11.26738281 16.85902344 -11.35117188 15.60476562 -11.4375 14.3125 C-11.51871094 13.07113281 -11.59992188 11.82976563 -11.68359375 10.55078125 C-11.94491317 7.61819663 -12.34798379 4.86558383 -13 2 C-11.5882217 1.46605821 -10.17029756 0.94834896 -8.75 0.4375 C-7.96109375 0.14746094 -7.1721875 -0.14257812 -6.359375 -0.44140625 C-3.80896548 -1.04522837 -2.44677771 -0.8473932 0 0 Z " fill="#285AB5" transform="translate(169,47)"/>
<path d="M0 0 C0.99 0.66 1.98 1.32 3 2 C3 3.32 3 4.64 3 6 C2.34 6.66 1.68 7.32 1 8 C0.01 8 -0.98 8 -2 8 C-2 7.34 -2 6.68 -2 6 C-3.98 6.66 -5.96 7.32 -8 8 C-8.66 6.68 -9.32 5.36 -10 4 C-10.94875 4.061875 -11.8975 4.12375 -12.875 4.1875 C-13.90625 4.125625 -14.9375 4.06375 -16 4 C-16.66 3.01 -17.32 2.02 -18 1 C-16.0509375 1.2475 -16.0509375 1.2475 -14.0625 1.5 C-9.34580713 2.0315638 -4.74361065 2.07529541 0 2 C0 1.34 0 0.68 0 0 Z " fill="#2571EA" transform="translate(130,55)"/>
<path d="M0 0 C1.49080078 0.16628906 1.49080078 0.16628906 3.01171875 0.3359375 C3.77097656 0.43132813 4.53023437 0.52671875 5.3125 0.625 C5.6425 1.615 5.9725 2.605 6.3125 3.625 C2.3525 3.295 -1.6075 2.965 -5.6875 2.625 C-6.0175 12.855 -6.3475 23.085 -6.6875 33.625 C-7.0175 33.625 -7.3475 33.625 -7.6875 33.625 C-7.90434869 29.10497704 -8.10124327 24.58469635 -8.27954102 20.06298828 C-8.34304235 18.52433958 -8.41202973 16.98590724 -8.48657227 15.44775391 C-8.59266922 13.23894359 -8.67912696 11.03011084 -8.76171875 8.8203125 C-8.79907639 8.13067413 -8.83643402 7.44103577 -8.87492371 6.73049927 C-8.9362793 4.78955078 -8.9362793 4.78955078 -8.6875 1.625 C-5.1388865 -0.74074234 -4.1110475 -0.48365265 0 0 Z " fill="#587DCB" transform="translate(64.6875,59.375)"/>
<path d="M0 0 C0.33 0 0.66 0 1 0 C1.5364195 3.20592709 2.05130483 6.41496222 2.5625 9.625 C2.71396484 10.52863281 2.86542969 11.43226562 3.02148438 12.36328125 C3.77750153 17.18069288 4.20733572 21.18664832 3 26 C1.68 25.34 0.36 24.68 -1 24 C-1.07183101 21.48591454 -1.05451964 19.24193089 -0.5 16.78125 C0.11234122 13.37510198 0.09482508 10.14628338 0.0625 6.6875 C0.04896484 4.80611328 0.04896484 4.80611328 0.03515625 2.88671875 C0.02355469 1.93410156 0.01195312 0.98148437 0 0 Z " fill="#5A8CDF" transform="translate(57,93)"/>
<path d="M0 0 C2.12955314 4.25910628 2.18689234 5.8883686 1.9765625 10.515625 C1.89921875 12.39121094 1.89921875 12.39121094 1.8203125 14.3046875 C1.75585938 15.60664063 1.69140625 16.90859375 1.625 18.25 C1.56828125 19.56742188 1.5115625 20.88484375 1.453125 22.2421875 C1.31168341 25.49534406 1.16026986 28.74772552 1 32 C2.32 31.67 3.64 31.34 5 31 C5 32.32 5 33.64 5 35 C4.01 35 3.02 35 2 35 C2 35.66 2 36.32 2 37 C1.01 36.67 0.02 36.34 -1 36 C-0.67 24.12 -0.34 12.24 0 0 Z " fill="#11316C" transform="translate(110,178)"/>
<path d="M0 0 C1.68416016 0.41572266 1.68416016 0.41572266 3.40234375 0.83984375 C10.9369077 2.67300753 18.25583411 4.35465284 26 5 C27.67170873 5.30704854 29.3420691 5.62562851 31 6 C31 6.33 31 6.66 31 7 C24.77321163 7.26942834 18.73340794 6.83735382 12.5625 6.0625 C11.86447266 5.97564941 11.16644531 5.88879883 10.44726562 5.79931641 C7.49923205 5.41107732 4.82871193 4.94290398 2 4 C0.8125 1.9375 0.8125 1.9375 0 0 Z " fill="#3C72CF" transform="translate(100,51)"/>
<path d="M0 0 C1.32 0 2.64 0 4 0 C4 0.66 4 1.32 4 2 C4.66 2 5.32 2 6 2 C6.33 1.34 6.66 0.68 7 0 C7.66 0.66 8.32 1.32 9 2 C9.99 2 10.98 2 12 2 C12 2.99 12 3.98 12 5 C9.11591611 6.36993985 6.99024715 7.2431252 3.8203125 6.46484375 C1.85249013 5.71202914 -0.07742824 4.86184251 -2 4 C-1.34 2.68 -0.68 1.36 0 0 Z " fill="#407CDD" transform="translate(91,64)"/>
<path d="M0 0 C0.33 0 0.66 0 1 0 C1.02724423 2.83339965 1.04695589 5.66653117 1.0625 8.5 C1.07087891 9.29148438 1.07925781 10.08296875 1.08789062 10.8984375 C1.11435562 17.35589581 0.8208643 23.75703668 -1 30 C-3.0257855 24.22651133 -3.15570776 19.38396381 -2.75 13.3125 C-2.71003906 12.47138672 -2.67007813 11.63027344 -2.62890625 10.76367188 C-2.3858338 6.62158602 -2.0568779 3.67203454 0 0 Z " fill="#346ED1" transform="translate(108,185)"/>
<path d="M0 0 C0.99 0 1.98 0 3 0 C1.55049595 4.35647645 -0.67747112 7.31757289 -3.625 10.8125 C-4.85089844 12.27623047 -4.85089844 12.27623047 -6.1015625 13.76953125 C-7.04128906 14.87361328 -7.04128906 14.87361328 -8 16 C-8.78346179 13.71026974 -9.14892344 12.44128848 -8.36328125 10.11328125 C-5.50155242 5.20898018 -5.50155242 5.20898018 -2.75 4.0625 C-2.1725 4.041875 -1.595 4.02125 -1 4 C-0.67 2.68 -0.34 1.36 0 0 Z " fill="#245FC4" transform="translate(176,188)"/>
<path d="M0 0 C2.015625 3.703125 2.015625 3.703125 1.875 6.375 C0.77406036 9.67781892 -0.97251522 12.1876824 -3 15 C-1.35 15.99 0.3 16.98 2 18 C-1.20395416 18 -3.09399739 17.25664978 -6 16 C-5.23757784 12.38944909 -3.87526626 9.14165375 -2.4375 5.75 C-1.98246094 4.67234375 -1.52742187 3.5946875 -1.05859375 2.484375 C-0.70925781 1.66453125 -0.35992187 0.8446875 0 0 Z " fill="#2456C4" transform="translate(177,150)"/>
<path d="M0 0 C2 2 2 2 2.046875 4.28515625 C1.40178665 10.32012757 0.44973798 16.10439888 -1 22 C-1.33 22 -1.66 22 -2 22 C-2 19.69 -2 17.38 -2 15 C-2.99 14.67 -3.98 14.34 -5 14 C-4.67 13.34 -4.34 12.68 -4 12 C-3.34 12 -2.68 12 -2 12 C-0.85110867 8.06094403 -0.47417305 4.06434042 0 0 Z " fill="#1D55B2" transform="translate(207,104)"/>
<path d="M0 0 C0.66 0.33 1.32 0.66 2 1 C2 1.66 2 2.32 2 3 C2.639375 3.2475 3.27875 3.495 3.9375 3.75 C6 5 6 5 6.5 6.9375 C6.665 7.618125 6.83 8.29875 7 9 C8.32848691 10.00642948 9.66150329 11.00692179 11 12 C11 12.99 11 13.98 11 15 C11.99 15.33 12.98 15.66 14 16 C13.67 16.99 13.34 17.98 13 19 C2.25740319 7.66287016 2.25740319 7.66287016 -1 1 C-0.67 0.67 -0.34 0.34 0 0 Z " fill="#5189E0" transform="translate(74,193)"/>
<path d="M0 0 C0.33 0.66 0.66 1.32 1 2 C0.67 2.66 0.34 3.32 0 4 C0.66 4.33 1.32 4.66 2 5 C-3.94 8.465 -3.94 8.465 -10 12 C-10 9 -10 9 -8.57421875 7.24609375 C-7.95160156 6.64925781 -7.32898437 6.05242187 -6.6875 5.4375 C-6.07261719 4.83808594 -5.45773438 4.23867187 -4.82421875 3.62109375 C-3 2 -3 2 0 0 Z " fill="#5883CD" transform="translate(54,183)"/>
<path d="M0 0 C-0.33 0.99 -0.66 1.98 -1 3 C-7.61387939 5.37101337 -14.03873166 5.20883805 -21 5 C-21 4.01 -21 3.02 -21 2 C-20.21496094 2.02320313 -19.42992188 2.04640625 -18.62109375 2.0703125 C-12.15164042 2.18144421 -6.11965836 0 0 0 Z " fill="#2D67C9" transform="translate(133,214)"/>
<path d="M0 0 C0.66 0.33 1.32 0.66 2 1 C0.54540569 2.64913882 -0.91379257 4.29421782 -2.375 5.9375 C-3.18710938 6.85402344 -3.99921875 7.77054688 -4.8359375 8.71484375 C-7 11 -7 11 -9 12 C-9.66 10.02 -10.32 8.04 -11 6 C-8.36 5.67 -5.72 5.34 -3 5 C-3.33 4.01 -3.66 3.02 -4 2 C-2.125 0.9375 -2.125 0.9375 0 0 Z " fill="#2866D4" transform="translate(165,204)"/>
<path d="M0 0 C3.98484488 0.66414081 7.51016972 1.85511824 11.25 3.375 C12.30703125 3.79523438 13.3640625 4.21546875 14.453125 4.6484375 C17 6 17 6 18 9 C17.34 9.66 16.68 10.32 16 11 C14 9.625 14 9.625 12 8 C12 7.34 12 6.68 12 6 C11.42765625 5.87753906 10.8553125 5.75507813 10.265625 5.62890625 C7.90046809 4.97237132 5.92793203 4.06276488 3.75 2.9375 C3.04359375 2.57527344 2.3371875 2.21304688 1.609375 1.83984375 C1.07828125 1.56269531 0.5471875 1.28554687 0 1 C0 0.67 0 0.34 0 0 Z " fill="#225FBF" transform="translate(164,169)"/>
<path d="M0 0 C4.455 0.99 4.455 0.99 9 2 C9 4 9 6 9 8 C5.08158173 6.69386058 2.67359191 5.16870152 0 2 C0 1.34 0 0.68 0 0 Z " fill="#3477E3" transform="translate(106,224)"/>
<path d="M0 0 C3.00155373 -0.13615919 5.996821 -0.2346398 9 -0.3125 C9.83917969 -0.35439453 10.67835937 -0.39628906 11.54296875 -0.43945312 C18.01785351 -0.56493539 21.89709837 1.04899289 27 5 C26.67 5.99 26.34 6.98 26 8 C25.443125 7.38125 24.88625 6.7625 24.3125 6.125 C19.51292393 1.71457874 14.40333198 1.62509215 8.1875 1.375 C7.00510742 1.31699219 7.00510742 1.31699219 5.79882812 1.2578125 C3.8662462 1.16411156 1.93315624 1.08099221 0 1 C0 0.67 0 0.34 0 0 Z " fill="#2F64C0" transform="translate(111,174)"/>
<path d="M0 0 C3.02207032 2.47035721 3.514897 4.4433617 4.0625 8.25 C4.75684056 12.64360034 5.67971555 16.75622856 7 21 C6.34 21.33 5.68 21.66 5 22 C4.1606242 18.89743488 3.3295495 15.79270556 2.5 12.6875 C2.26152344 11.80642578 2.02304687 10.92535156 1.77734375 10.01757812 C1.55175781 9.17001953 1.32617188 8.32246094 1.09375 7.44921875 C0.88427734 6.66893311 0.67480469 5.88864746 0.45898438 5.0847168 C0 3 0 3 0 0 Z " fill="#6490DB" transform="translate(41,118)"/>
<path d="M0 0 C2.0081326 0.28020455 4.0075675 0.62406934 6 1 C8 1.33333333 10 1.66666667 12 2 C12 2.66 12 3.32 12 4 C12.969375 4.12375 13.93875 4.2475 14.9375 4.375 C16.4534375 4.684375 16.4534375 4.684375 18 5 C18.33 5.66 18.66 6.32 19 7 C16.415141 6.3808361 13.83223828 5.75492318 11.25 5.125 C10.52039063 4.95097656 9.79078125 4.77695313 9.0390625 4.59765625 C5.46714972 3.72091402 2.20626159 2.87313177 -1 1 C-0.67 0.67 -0.34 0.34 0 0 Z " fill="#3B71C8" transform="translate(99,69)"/>
<path d="M0 0 C7.39736739 0.13698829 12.59400868 2.92634421 18 8 C18 8.99 18 9.98 18 11 C16.2421875 9.99088542 14.484375 8.98177083 12.7265625 7.97265625 C11.50201525 7.28280949 10.25710923 6.62855462 9 6 C9 5.01 9 4.02 9 3 C6.03 2.67 3.06 2.34 0 2 C0 1.34 0 0.68 0 0 Z " fill="#112A52" transform="translate(128,35)"/>
<path d="M0 0 C1.47906892 -0.02689216 2.95827483 -0.04634621 4.4375 -0.0625 C5.26121094 -0.07410156 6.08492187 -0.08570313 6.93359375 -0.09765625 C9 0 9 0 10 1 C10.14115161 3.67058851 10.04247107 6.32432238 10 9 C9.67 9 9.34 9 9 9 C9 6.69 9 4.38 9 2 C7.515 2.2165625 7.515 2.2165625 6 2.4375 C2.00590535 3.00925179 -1.99532937 3.50819834 -6 4 C-6 3.34 -6 2.68 -6 2 C-4.02 2 -2.04 2 0 2 C0 1.34 0 0.68 0 0 Z " fill="#285AB6" transform="translate(181,59)"/>
<path d="M0 0 C0.33 0.99 0.66 1.98 1 3 C-0.98 3 -2.96 3 -5 3 C-5 3.66 -5 4.32 -5 5 C-6.32 4.67 -7.64 4.34 -9 4 C-9.33 2.68 -9.66 1.36 -10 0 C-6.7169902 -1.6415049 -3.57454967 -0.51888624 0 0 Z " fill="#1960D4" transform="translate(180,58)"/>
<path d="M0 0 C0.33 0.66 0.66 1.32 1 2 C-3.62 2.33 -8.24 2.66 -13 3 C-13.33 3.99 -13.66 4.98 -14 6 C-14.66 6 -15.32 6 -16 6 C-16 8.31 -16 10.62 -16 13 C-16.33 13 -16.66 13 -17 13 C-17 9.37 -17 5.74 -17 2 C-13.53287889 0.84429296 -10.4585044 0.67164707 -6.8125 0.4375 C-5.54019531 0.35371094 -4.26789063 0.26992187 -2.95703125 0.18359375 C-1.98121094 0.12300781 -1.00539063 0.06242188 0 0 Z " fill="#3672DB" transform="translate(124,172)"/>
<path d="M0 0 C0 0.66 0 1.32 0 2 C-1.1446875 2.185625 -1.1446875 2.185625 -2.3125 2.375 C-5.20267136 2.88102792 -5.20267136 2.88102792 -8 5 C-10.69921875 5.1953125 -10.69921875 5.1953125 -13.6875 5.125 C-15.17830078 5.09792969 -15.17830078 5.09792969 -16.69921875 5.0703125 C-17.45847656 5.04710937 -18.21773437 5.02390625 -19 5 C-15.90131855 2.93421237 -13.65023694 2.25308642 -10.0625 1.375 C-9.02222656 1.11460938 -7.98195312 0.85421875 -6.91015625 0.5859375 C-4 0 -4 0 0 0 Z " fill="#225BB3" transform="translate(188,41)"/>
<path d="M0 0 C2.09212349 3.13818524 3.09570676 5.85675232 4.25 9.4375 C4.62640625 10.57058594 5.0028125 11.70367187 5.390625 12.87109375 C6 16 6 16 5.109375 18.41015625 C4.74328125 18.93480469 4.3771875 19.45945313 4 20 C3.69255859 18.82630859 3.69255859 18.82630859 3.37890625 17.62890625 C3.10949219 16.61699219 2.84007813 15.60507813 2.5625 14.5625 C2.16224609 13.04849609 2.16224609 13.04849609 1.75390625 11.50390625 C1.24021923 9.08247999 1.24021923 9.08247999 0 8 C-0.14115161 5.32941149 -0.04247107 2.67567762 0 0 Z " fill="#5A85CF" transform="translate(63,128)"/>
<path d="M0 0 C-1.69900185 1.01577335 -3.40970451 2.0119898 -5.125 3 C-6.07632813 3.556875 -7.02765625 4.11375 -8.0078125 4.6875 C-11.26515122 6.11630654 -13.4837829 6.25041309 -17 6 C-14.42166561 3.42166561 -11.89674219 2.6238529 -8.5 1.3125 C-7.3346875 0.85488281 -6.169375 0.39726562 -4.96875 -0.07421875 C-2 -1 -2 -1 0 0 Z " fill="#5488DB" transform="translate(86,169)"/>
<path d="M0 0 C0 0.66 0 1.32 0 2 C-1.31787285 3.02028865 -2.65210653 4.01971384 -4 5 C-4.33 5.66 -4.66 6.32 -5 7 C-5.66 7.66 -6.32 8.32 -7 9 C-8.32 9 -9.64 9 -11 9 C-9.55936614 4.67809842 -4.74032109 0 0 0 Z " fill="#162D58" transform="translate(112,37)"/>
<path d="M0 0 C1.258125 0.12375 2.51625 0.2475 3.8125 0.375 C4.87404297 0.47941406 4.87404297 0.47941406 5.95703125 0.5859375 C8 1 8 1 11 3 C9.56853622 3.41713515 8.12941114 3.8080497 6.6875 4.1875 C5.88699219 4.40792969 5.08648437 4.62835938 4.26171875 4.85546875 C2 5 2 5 0.20703125 3.55078125 C-0.19128906 3.03902344 -0.58960937 2.52726562 -1 2 C-0.67 1.34 -0.34 0.68 0 0 Z " fill="#4F83DF" transform="translate(65,42)"/>
<path d="M0 0 C2.46278801 2.46278801 2.99771255 4.70676982 4 8 C-0.75 11 -0.75 11 -3 11 C-3 10.01 -3 9.02 -3 8 C-1.68 8 -0.36 8 1 8 C0.67 5.36 0.34 2.72 0 0 Z " fill="#558BD3" transform="translate(73,157)"/>
<path d="M0 0 C0.28875 0.61875 0.5775 1.2375 0.875 1.875 C1.93720042 4.13325765 1.93720042 4.13325765 4 6 C4.33 5.34 4.66 4.68 5 4 C5.33 5.32 5.66 6.64 6 8 C5.01 8.33 4.02 8.66 3 9 C3 9.99 3 10.98 3 12 C2.34 12 1.68 12 1 12 C-0.3271261 8.0186217 -0.06915913 4.14954773 0 0 Z " fill="#5B95F0" transform="translate(41,108)"/>
<path d="M0 0 C1 3 1 3 0.22265625 4.82421875 C-0.8515625 6.54947917 -1.92578125 8.27473958 -3 10 C-4.9375 9.625 -4.9375 9.625 -7 9 C-7.33 8.34 -7.66 7.68 -8 7 C-6.68 7.33 -5.36 7.66 -4 8 C-4 7.34 -4 6.68 -4 6 C-3.34 6 -2.68 6 -2 6 C-1.855625 5.195625 -1.71125 4.39125 -1.5625 3.5625 C-1 1 -1 1 0 0 Z " fill="#255BB2" transform="translate(191,164)"/>
<path d="M0 0 C0.99 0.33 1.98 0.66 3 1 C2.67 1.99 2.34 2.98 2 4 C1.01 4 0.02 4 -1 4 C-1 4.66 -1 5.32 -1 6 C-1.99 5.67 -2.98 5.34 -4 5 C-4 4.34 -4 3.68 -4 3 C-3.34 3 -2.68 3 -2 3 C-2 2.34 -2 1.68 -2 1 C-1.34 0.67 -0.68 0.34 0 0 Z " fill="#083568" transform="translate(113,209)"/>
<path d="M0 0 C0.66 0 1.32 0 2 0 C2.9360342 3.79267192 2.98276252 6.93674565 2.5625 10.8125 C2.40974609 12.27623047 2.40974609 12.27623047 2.25390625 13.76953125 C2.17011719 14.50558594 2.08632812 15.24164063 2 16 C1.67 16 1.34 16 1 16 C0.83191581 13.89594609 0.66558052 11.79175242 0.5 9.6875 C0.4071875 8.51574219 0.314375 7.34398437 0.21875 6.13671875 C0.07635011 4.094806 0 2.0468721 0 0 Z " fill="#0B264D" transform="translate(126,186)"/>
<path d="M0 0 C6.70212766 1.93617021 6.70212766 1.93617021 9 5 C9 5.66 9 6.32 9 7 C5.56072421 5.7580393 2.74792181 4.44259716 0 2 C0 1.34 0 0.68 0 0 Z " fill="#234CA1" transform="translate(196,188)"/>
<path d="M0 0 C1.0546875 1.859375 1.0546875 1.859375 2 4 C1.125 6.25 1.125 6.25 0 8 C-0.66 8 -1.32 8 -2 8 C-2.33 9.32 -2.66 10.64 -3 12 C-4 10 -4 10 -3.22265625 7.6171875 C-2.83980469 6.71226562 -2.45695313 5.80734375 -2.0625 4.875 C-1.68222656 3.96492187 -1.30195313 3.05484375 -0.91015625 2.1171875 C-0.60980469 1.41851562 -0.30945313 0.71984375 0 0 Z " fill="#285CB9" transform="translate(177,150)"/>
<path d="M0 0 C0.66 0 1.32 0 2 0 C2 3.63 2 7.26 2 11 C1.34 11 0.68 11 0 11 C0 7.37 0 3.74 0 0 Z " fill="#203061" transform="translate(123,190)"/>
<path d="M0 0 C2.31 0 4.62 0 7 0 C6.67 1.32 6.34 2.64 6 4 C4.02 4 2.04 4 0 4 C-0.33 3.34 -0.66 2.68 -1 2 C-0.01 2 0.98 2 2 2 C1.34 1.34 0.68 0.68 0 0 Z " fill="#3A7CEB" transform="translate(93,51)"/>
<path d="M0 0 C1.4606285 2.64738916 2 3.89448334 2 7 C-0.31 7 -2.62 7 -5 7 C-4.67 6.34 -4.34 5.68 -4 5 C-3.34 5 -2.68 5 -2 5 C-1.34 3.35 -0.68 1.7 0 0 Z " fill="#205BCE" transform="translate(138,207)"/>
<path d="M0 0 C2 1 4 2 6 3 C6 3.99 6 4.98 6 6 C6.99 6.33 7.98 6.66 9 7 C8.67 7.99 8.34 8.98 8 10 C6.66370254 8.52351062 5.33103329 7.0437367 4 5.5625 C3.2575 4.73878906 2.515 3.91507813 1.75 3.06640625 C0 1 0 1 0 0 Z " fill="#507FD1" transform="translate(79,202)"/>
<path d="M0 0 C0.66 0.33 1.32 0.66 2 1 C0.02 3.31 -1.96 5.62 -4 8 C-4.66 7.67 -5.32 7.34 -6 7 C-6 6.34 -6 5.68 -6 5 C-5.01 5 -4.02 5 -3 5 C-3.33 4.01 -3.66 3.02 -4 2 C-2.125 0.9375 -2.125 0.9375 0 0 Z " fill="#2864C3" transform="translate(165,204)"/>
<path d="M0 0 C3.4375 0.8125 3.4375 0.8125 7 2 C7.33 2.99 7.66 3.98 8 5 C6.02 5 4.04 5 2 5 C1.34 3.35 0.68 1.7 0 0 Z " fill="#3A75DC" transform="translate(100,51)"/>
<path d="M0 0 C0.66 0 1.32 0 2 0 C1.01 3.96 0.02 7.92 -1 12 C-1.83829874 8.64680506 -2.25998454 6.37979896 -2 3 C-1.34 2.01 -0.68 1.02 0 0 Z " fill="#2353AD" transform="translate(203,128)"/>
<path d="M0 0 C0.99 0.66 1.98 1.32 3 2 C3 3.32 3 4.64 3 6 C2.01 6.33 1.02 6.66 0 7 C-0.33 6.34 -0.66 5.68 -1 5 C-1.99 4.34 -2.98 3.68 -4 3 C-2.68 2.67 -1.36 2.34 0 2 C0 1.34 0 0.68 0 0 Z " fill="#2462E6" transform="translate(130,55)"/>
<path d="M0 0 C3.16115776 1.36983503 3.9927092 1.9890638 6 5 C2.7 4.34 -0.6 3.68 -4 3 C-2.68 2.67 -1.36 2.34 0 2 C0 1.34 0 0.68 0 0 Z " fill="#2A5BAF" transform="translate(195,185)"/>
<path d="M0 0 C1.65 0 3.3 0 5 0 C5 0.66 5 1.32 5 2 C4.34 2 3.68 2 3 2 C2.67 2.99 2.34 3.98 2 5 C1.01 4.67 0.02 4.34 -1 4 C-0.67 2.68 -0.34 1.36 0 0 Z " fill="#5A8FEF" transform="translate(55,183)"/>
<path d="M0 0 C-0.3125 1.9375 -0.3125 1.9375 -1 4 C-1.99 4.33 -2.98 4.66 -4 5 C-4.99 4.34 -5.98 3.68 -7 3 C-2.25 0 -2.25 0 0 0 Z " fill="#5487DB" transform="translate(69,175)"/>
<path d="M0 0 C0.66 0.33 1.32 0.66 2 1 C2 1.99 2 2.98 2 4 C0.02 4.66 -1.96 5.32 -4 6 C-4 4.68 -4 3.36 -4 2 C-2.125 0.9375 -2.125 0.9375 0 0 Z " fill="#3476EC" transform="translate(101,65)"/>
<path d="M0 0 C2.475 0.495 2.475 0.495 5 1 C5 1.99 5 2.98 5 4 C3.35 3.67 1.7 3.34 0 3 C0 2.01 0 1.02 0 0 Z " fill="#1C59C3" transform="translate(190,183)"/>
<path d="M0 0 C0.33 0.66 0.66 1.32 1 2 C0.0625 4.625 0.0625 4.625 -1 7 C-1.66 6.67 -2.32 6.34 -3 6 C-3.625 3.9375 -3.625 3.9375 -4 2 C-2.68 1.34 -1.36 0.68 0 0 Z " fill="#2463D7" transform="translate(142,181)"/>
<path d="M0 0 C-2.3125 2.0625 -2.3125 2.0625 -5 4 C-5.99 3.67 -6.98 3.34 -8 3 C-8 2.34 -8 1.68 -8 1 C-5.07175348 0.02391783 -3.04386724 -0.08226668 0 0 Z " fill="#6086D2" transform="translate(67,170)"/>
<path d="M0 0 C1.65 0.33 3.3 0.66 5 1 C4.67 2.32 4.34 3.64 4 5 C3.34 5 2.68 5 2 5 C1.34 4.34 0.68 3.68 0 3 C0 2.01 0 1.02 0 0 Z " fill="#4688EB" transform="translate(74,191)"/>
<path d="M0 0 C3.73487777 0.4979837 5.81237635 0.87491756 9 3 C5.7 2.67 2.4 2.34 -1 2 C-0.67 1.34 -0.34 0.68 0 0 Z " fill="#4476D5" transform="translate(99,69)"/>
<path d="M0 0 C1.32 0 2.64 0 4 0 C3.67 0.99 3.34 1.98 3 3 C2.01 3 1.02 3 0 3 C-0.33 3.66 -0.66 4.32 -1 5 C-1 1 -1 1 0 0 Z " fill="#3878F1" transform="translate(91,64)"/>
<path d="M0 0 C-3.6441774 2.4294516 -5.71241272 2.16179575 -10 2 C-6.80505194 -1.19494806 -4.22040044 -1.35655728 0 0 Z " fill="#2B61C1" transform="translate(169,47)"/>
<path d="" fill="#FFFFFF" transform="translate(0,0)"/>
<path d="" fill="#FFFFFF" transform="translate(0,0)"/>
<path d="" fill="#FFFFFF" transform="translate(0,0)"/>
<path d="" fill="#FFFFFF" transform="translate(0,0)"/>
<path d="" fill="#FFFFFF" transform="translate(0,0)"/>
<path d="" fill="#FFFFFF" transform="translate(0,0)"/>
<path d="" fill="#FFFFFF" transform="translate(0,0)"/>
<path d="" fill="#FFFFFF" transform="translate(0,0)"/>
<path d="" fill="#FFFFFF" transform="translate(0,0)"/>
<path d="" fill="#FFFFFF" transform="translate(0,0)"/>
<path d="" fill="#FFFFFF" transform="translate(0,0)"/>
<path d="" fill="#FFFFFF" transform="translate(0,0)"/>
<path d="" fill="#FFFFFF" transform="translate(0,0)"/>
<path d="" fill="#FFFFFF" transform="translate(0,0)"/>
<path d="" fill="#FFFFFF" transform="translate(0,0)"/>
<path d="" fill="#FFFFFF" transform="translate(0,0)"/>
<path d="" fill="#FFFFFF" transform="translate(0,0)"/>
<path d="" fill="#FFFFFF" transform="translate(0,0)"/>
<path d="" fill="#FFFFFF" transform="translate(0,0)"/>
<path d="" fill="#FFFFFF" transform="translate(0,0)"/>
<path d="" fill="#FFFFFF" transform="translate(0,0)"/>
<path d="" fill="#FFFFFF" transform="translate(0,0)"/>
<path d="" fill="#FFFFFF" transform="translate(0,0)"/>
<path d="" fill="#FFFFFF" transform="translate(0,0)"/>
<path d="" fill="#FFFFFF" transform="translate(0,0)"/>
<path d="" fill="#FFFFFF" transform="translate(0,0)"/>
<path d="" fill="#FFFFFF" transform="translate(0,0)"/>
<path d="" fill="#FFFFFF" transform="translate(0,0)"/>
<path d="" fill="#FFFFFF" transform="translate(0,0)"/>
<path d="" fill="#FFFFFF" transform="translate(0,0)"/>
<path d="" fill="#FFFFFF" transform="translate(0,0)"/>
<path d="" fill="#FFFFFF" transform="translate(0,0)"/>
<path d="" fill="#FFFFFF" transform="translate(0,0)"/>
<path d="" fill="#FFFFFF" transform="translate(0,0)"/>
<path d="" fill="#FFFFFF" transform="translate(0,0)"/>
<path d="" fill="#FFFFFF" transform="translate(0,0)"/>
<path d="" fill="#FFFFFF" transform="translate(0,0)"/>
<path d="" fill="#FFFFFF" transform="translate(0,0)"/>
<path d="" fill="#FFFFFF" transform="translate(0,0)"/>
<path d="" fill="#FFFFFF" transform="translate(0,0)"/>
<path d="" fill="#FFFFFF" transform="translate(0,0)"/>
<path d="" fill="#FFFFFF" transform="translate(0,0)"/>
<path d="" fill="#FFFFFF" transform="translate(0,0)"/>
<path d="" fill="#FFFFFF" transform="translate(0,0)"/>
<path d="" fill="#FFFFFF" transform="translate(0,0)"/>
<path d="" fill="#FFFFFF" transform="translate(0,0)"/>
<path d="" fill="#FFFFFF" transform="translate(0,0)"/>
<path d="" fill="#FFFFFF" transform="translate(0,0)"/>
<path d="" fill="#FFFFFF" transform="translate(0,0)"/>
<path d="" fill="#FFFFFF" transform="translate(0,0)"/>
<path d="" fill="#FFFFFF" transform="translate(0,0)"/>
<path d="" fill="#FFFFFF" transform="translate(0,0)"/>
<path d="" fill="#FFFFFF" transform="translate(0,0)"/>
<path d="" fill="#FFFFFF" transform="translate(0,0)"/>
<path d="" fill="#FFFFFF" transform="translate(0,0)"/>
<path d="" fill="#FFFFFF" transform="translate(0,0)"/>
<path d="" fill="#FFFFFF" transform="translate(0,0)"/>
<path d="" fill="#FFFFFF" transform="translate(0,0)"/>
<path d="" fill="#FFFFFF" transform="translate(0,0)"/>
<path d="" fill="#FFFFFF" transform="translate(0,0)"/>
<path d="" fill="#FFFFFF" transform="translate(0,0)"/>
<path d="" fill="#FFFFFF" transform="translate(0,0)"/>
<path d="" fill="#FFFFFF" transform="translate(0,0)"/>
<path d="" fill="#FFFFFF" transform="translate(0,0)"/>
</svg>
